Coordinates
version=1
nRows=15
nColumns=34
inDegrees=yes

Units are S.I. units (second, meters, Newtons, ...)
If the header above contains a line with 'inDegrees', this indicates whether rotational values are in degrees (yes) or radians (no).

endheader
time	pelvis_tilt	pelvis_list	pelvis_rotation	pelvis_tx	pelvis_ty	pelvis_tz	hip_flexion_r	hip_adduction_r	hip_rotation_r	knee_angle_r	ankle_angle_r	subtalar_angle_r	mtp_angle_r	hip_flexion_l	hip_adduction_l	hip_rotation_l	knee_angle_l	ankle_angle_l	subtalar_angle_l	mtp_angle_l	lumbar_extension	lumbar_bending	lumbar_rotation	arm_flex_r	arm_add_r	arm_rot_r	elbow_flex_r	pro_sup_r	arm_flex_l	arm_add_l	arm_rot_l	elbow_flex_l	pro_sup_l
      4.36666670	     -9.78719947	      0.69427396	      1.59406739	      0.91855749	      1.17341047	     -0.16216048	      0.39525847	      3.06127457	    -12.22069325	      3.19590245	    -50.00000000	      3.34099202	      0.00000000	      6.57465374	      4.38149466	     -9.45105023	      9.51332612	    -50.00000000	     -1.66897390	      0.00000000	      7.57510383	      1.44000640	     -2.26677962	     -2.68177012	    -18.43618935	     91.93032818	     27.67017004	     39.10442894	    -11.96618902	    -19.77036805	     75.96341587	     25.13989741	     46.66332100
      4.38333330	    -10.19710404	      0.97875315	      2.40995706	      0.92164057	      1.17781311	     -0.16592848	      1.69043564	      2.89680254	    -11.06256006	      2.94363253	    -50.00000000	      4.51105786	      0.00000000	      7.74629064	      5.02327516	    -10.48434403	      8.61127585	    -50.00000000	     -1.66495456	      0.00000000	      7.92410289	      1.57362250	     -2.40654798	     -2.47256690	    -18.17615988	     91.72217864	     28.27577152	     39.33881394	    -11.34126955	    -19.58519886	     75.99416752	     25.84910335	     46.39179731
      4.40000000	    -10.21835124	      0.92805865	      2.94100502	      0.91985742	      1.17793564	     -0.16979932	      2.92374283	      2.81729741	    -10.25966574	      2.63624016	    -50.00000000	      4.69673468	      0.00000000	      8.81396006	      5.29005308	    -10.61966070	      7.77478768	    -50.00000000	     -1.77120581	      0.00000000	      7.44687914	      2.20644773	     -2.47188917	     -2.16203595	    -18.18524249	     91.76780080	     28.56426964	     39.50443057	    -10.42160992	    -19.25009709	     75.98626893	     26.32852896	     46.24436974
      4.41666670	    -10.18704929	      1.02441122	      3.56040094	      0.91768634	      1.18002345	     -0.17333518	      4.01406383	      2.42503596	    -10.19984548	      2.59163773	    -50.00000000	      4.80490510	      0.00000000	      9.76052358	      5.54701181	    -11.31462084	      7.19902963	    -50.00000000	     -1.68296871	      0.00000000	      6.74040506	      2.63229357	     -2.65443877	     -2.04569220	    -18.05086447	     91.96107741	     28.64857149	     39.63531736	     -9.35591982	    -18.88387708	     76.02328888	     26.57257158	     46.15284030
      4.43333330	     -9.97521160	      0.89430492	      3.91508377	      0.91773106	      1.17099959	     -0.17514588	      5.08344941	      2.34428451	    -10.09372228	      2.94147835	    -50.00000000	      4.65119168	      0.00000000	     10.46313863	      5.38848194	    -11.68913934	      6.72006909	    -50.00000000	     -1.60244291	      0.00000000	      5.89344993	      3.28870212	     -2.56256063	     -2.01518260	    -18.08261742	     92.34721793	     28.58946737	     39.78036991	     -8.34322200	    -18.59239460	     76.18365338	     26.74870433	     46.08637992
      4.45000000	     -9.51747658	      0.87875241	      4.12611057	      0.91921436	      1.16026214	     -0.17833229	      5.72000113	      2.15684857	     -9.28440249	      3.39694255	    -50.00000000	      3.35626655	      0.00000000	     10.75378714	      5.22308487	    -11.52377989	      6.55146069	    -50.00000000	     -2.43184739	      0.00000000	      5.22164161	      3.90660933	     -2.23072190	     -1.96620699	    -17.90443087	     94.99460764	     27.87225384	     40.49331498	     -6.90627585	    -18.45051485	     79.49943455	     26.80891568	     45.79302057
      4.46666670	     -9.10960045	      0.69699174	      4.29540995	      0.91651675	      1.15643129	     -0.17980913	      6.60029545	      1.95459897	     -9.47474102	      3.88209827	    -50.00000000	      2.32913395	      0.00000000	     11.17830016	      4.75152255	    -11.52647743	      6.61793426	    -48.90940711	     -2.71479047	      0.00000000	      4.29618689	      4.55171408	     -2.20966502	     -2.29476029	    -17.89898189	     95.30983441	     27.79694933	     40.48764438	     -6.27489448	    -18.05692358	     79.62704537	     26.76410716	     45.70071951
      4.48333330	     -8.64147940	      0.54170017	      4.54491396	      0.92124689	      1.14392602	     -0.18268347	      6.97654498	      1.91851843	     -8.42707272	      4.12827551	    -50.00000000	      0.41887703	      0.00000000	     11.12948707	      4.21345070	    -11.69064081	      6.68492213	    -46.09995429	     -2.66280706	      0.00000000	      3.87451915	      5.06092636	     -2.01266278	     -2.46941195	    -18.00941631	     96.01504873	     27.56350954	     40.39036113	     -5.89064368	    -17.66728505	     80.43358595	     26.24070914	     45.55164434
      4.50000000	     -8.32215494	      0.43555984	      4.80125228	      0.91847828	      1.13299856	     -0.18303730	      7.59872286	      1.93419013	     -8.05810847	      4.60200775	    -48.19186382	     -0.55677111	      0.00000000	     11.34635330	      3.60573269	    -11.70762021	      7.23452709	    -44.22431627	     -3.51881688	      0.00000000	      3.27632739	      5.42927545	     -2.03663217	     -2.58539510	    -17.94898142	     96.25322508	     27.40973152	     40.33193701	     -5.56263564	    -17.51889998	     80.69504193	     26.04682559	     45.51801764
      4.51666670	     -7.80066069	      0.27009519	      5.22377607	      0.91809119	      1.11707668	     -0.18561182	      8.08459394	      2.10256964	     -7.42597237	      5.45425426	    -45.21265174	     -1.49135711	      0.00000000	     11.37597461	      2.90674859	    -11.03641570	      8.03870388	    -41.92822489	     -4.19430277	      0.00000000	      2.60955835	      5.79158033	     -2.04490796	     -2.77945211	    -17.89451868	     96.50536102	     27.23426477	     40.27207280	     -5.11112176	    -17.41100074	     80.93900249	     25.78302844	     45.51137371
      4.53333330	     -7.45986180	      0.14695299	      5.54464081	      0.91700768	      1.10514435	     -0.18800867	      9.00623377	      2.27443654	     -7.20778772	      6.27723138	    -41.51876249	     -0.41672584	      0.00000000	     11.40625035	      2.29760951	    -10.51607904	      8.55343505	    -39.77231894	     -4.07724356	      0.00000000	      1.81123752	      6.14902723	     -1.71038862	     -3.01242960	    -17.41732896	     97.12364847	     26.13729902	     39.81080356	     -4.34394902	    -16.82891144	     82.42191057	     24.43975906	     45.58584941
      4.55000000	     -6.74128959	      0.10962935	      6.08767685	      0.91546661	      1.07266556	     -0.18824164	      9.41051512	      2.66592700	     -6.61555551	      7.26950638	    -37.87765335	     -1.86211136	      0.00000000	     11.62054997	      1.60065994	     -9.39288549	     10.29240281	    -37.02558591	     -5.41845704	      0.00000000	      0.46193706	      6.29887594	     -1.74194753	     -2.88219544	    -17.20825156	     97.20356575	     26.03021226	     39.70203017	     -3.59797216	    -16.84175079	     82.58905297	     24.28517428	     45.59562919
      4.56666670	     -5.71165490	      0.43410686	      6.28613371	      0.91164680	      1.04812912	     -0.18940483	      9.75157556	      2.85058508	     -5.66753001	      8.70679008	    -36.67837099	     -2.03849105	      0.00000000	     11.82999754	      1.28381088	     -7.66199549	     12.56852950	    -35.16431332	     -7.28444033	      0.00000000	     -1.56556361	      6.23355270	     -1.34519611	     -2.65236286	    -16.90424752	     97.28751169	     25.55672286	     39.44777318	     -2.67599825	    -16.67096273	     82.90095031	     23.97847874	     45.63221087
      4.58333330	     -4.36369802	      0.85202873	      6.79927106	      0.91220425	      1.01465649	     -0.19123746	      9.74688335	      3.10244177	     -4.63191484	     10.24030831	    -35.41595492	     -1.68042558	      0.00000000	     11.85131631	      1.05863626	     -5.98295962	     14.95405384	    -35.43125680	    -11.04472879	      0.00000000	     -3.86413922	      5.95861666	     -0.74916488	     -2.57652178	    -16.38948567	     97.16011431	     24.73837968	     38.70628354	     -1.30797450	    -16.76181227	     83.58769265	     23.64998690	     45.75457810
      4.60000000	     -3.43778192	      1.09444890	      7.35588571	      0.91647052	      0.98756557	     -0.19173895	      9.60257574	      3.56156220	     -3.77993777	     11.52568026	    -35.74210965	     -1.50593640	      0.00000000	     11.81190486	      0.47233049	     -4.73272123	     17.37092749	    -36.15412277	    -14.21037633	      0.00000000	     -5.21427638	      5.68864425	     -0.58253383	     -2.70013839	    -15.95531527	     96.75905718	     24.14720996	     37.96371554	     -0.48220524	    -16.69238800	     83.85928633	     23.25443356	     45.74459231
